<?xml version="1.0" encoding="UTF-8" standalone="no"?>
<svg
   width="101"
   height="129"
   viewBox="0 0 101 129"
   fill="none"
   version="1.1"
   id="svg5"
   sodipodi:docname="logo_icon.svg"
   inkscape:version="1.4.2 (ebf0e94, 2025-05-08)"
   xmlns:inkscape="http://www.inkscape.org/namespaces/inkscape"
   xmlns:sodipodi="http://sodipodi.sourceforge.net/DTD/sodipodi-0.dtd"
   xmlns="http://www.w3.org/2000/svg"
   xmlns:svg="http://www.w3.org/2000/svg">
  <sodipodi:namedview
     id="namedview5"
     pagecolor="#ffffff"
     bordercolor="#000000"
     borderopacity="0.25"
     inkscape:showpageshadow="2"
     inkscape:pageopacity="0.0"
     inkscape:pagecheckerboard="0"
     inkscape:deskcolor="#d1d1d1"
     inkscape:zoom="4.2371592"
     inkscape:cx="66.436021"
     inkscape:cy="57.939762"
     inkscape:window-width="1920"
     inkscape:window-height="991"
     inkscape:window-x="-9"
     inkscape:window-y="-9"
     inkscape:window-maximized="1"
     inkscape:current-layer="svg5" />
  <g
     clip-path="url(#clip0_1273_11445)"
     id="g5"
     transform="matrix(1.0032976,0,0,1,-1.4249695e-4,0)">
    <path
       d="m 5.77014,0.118164 c 0,0 -5.7269271,0.874032 -5.7269271,5.726626 0,4.85261 0.0443195,117.85821 0.0443195,117.85821 0,0 0.8681876,5.254 5.2542876,5.254 H 94.9616 c 0,0 5.7274,-0.333 5.7274,-5.728 V 5.86634 c 0,0 -0.323,-5.748176 -5.7484,-5.748176 z"
       fill="#01172e"
       id="path1" />
    <path
       d="M 93.4595,10.1521 H 7.15747 V 110.913 H 93.4595 Z"
       fill="#ffffff"
       id="path2" />
    <path
       d="m 50.3749,124.527 c 2.4013,0 4.3479,-1.947 4.3479,-4.348 0,-2.401 -1.9466,-4.348 -4.3479,-4.348 -2.4012,0 -4.3478,1.947 -4.3478,4.348 0,2.401 1.9466,4.348 4.3478,4.348 z"
       fill="#ffffff"
       id="path3" />
    <path
       d="m 50.3795,7.00926 c 0.9179,0 1.662,-0.74409 1.662,-1.66198 0,-0.91788 -0.7441,-1.66198 -1.662,-1.66198 -0.9179,0 -1.662,0.7441 -1.662,1.66198 0,0.91789 0.7441,1.66198 1.662,1.66198 z"
       fill="#ffffff"
       id="path4" />
    <path
       d="m 50.3099,23.1997 c -2.1483,0 -2.827,2.2254 -2.827,2.2254 l 0.1208,25.3623 c -5.1329,-0.1392 -9.7524,-0.0422 -13.5927,3.7981 -1.9855,1.9855 -3.3237,3.4182 -3.3237,7.6709 0,6.6243 5.9974,10.9093 10.0636,10.9093 4.0662,0 6.9214,-0.0167 6.9214,-0.0167 l -0.0926,8.2382 c 0,0 -7.0519,0.0197 -7.4809,0.0343 -0.4037,0.0138 -1.8262,0.2914 -1.8262,2.5645 0,2.273 2.1274,2.7587 2.1274,2.7587 l 7.1439,-0.0021 -0.1263,8.7986 c 0,0 0.3139,2.5417 2.919,2.5417 2.6052,0 2.9576,-2.4867 2.9576,-2.4867 l -0.3536,-8.8196 h 5.4795 c 1.6843,0 8.1511,-3.6104 8.1511,-8.3157 0,-7.5077 -4.2895,-11.3965 -9.8811,-11.3965 h -3.6718 c 0,-0.4427 -0.0146,-10.0568 -0.0146,-10.0568 h 9.1204 c 0,0 10.9487,-1.2364 10.9487,-10.9488 0,-9.7124 -9.2178,-12.4392 -11.9653,-12.4392 h -8.0018 v -8.1945 c 0,0 -0.492,-2.2254 -2.7958,-2.2254 z m -16.4182,8.1396 c 0,0 -11.5319,-0.4869 -11.1433,13.7539 0.0588,2.1559 2.1677,1.879 2.1677,1.879 0,0 7.405,-0.0686 8.3457,-0.0686 3.539,0.0825 11.1394,-3.7418 10.6449,-15.5643 z m 19.3299,8.8062 c 0,0 7.1284,0.061 7.9442,0.061 0.8157,0 5.1878,0.7556 5.1878,5.2598 0,3.1053 -3.4942,5.1878 -5.1878,5.1878 H 53.2216 Z M 42.5467,57.21 h 4.9517 v 9.7573 H 42.605 c -1.6817,0 -5.1796,-1.4111 -5.1796,-4.6356 0,-3.6092 3.7378,-5.1217 5.1213,-5.1217 z m 13.169,15.939 c 0.783,0 4.8011,-0.1074 4.8011,3.8913 0,2.1965 -2.0509,3.8567 -4.8011,3.8567 h -2.9111 v -7.674 c 0,0 2.128,-0.074 2.9111,-0.074 z"
       fill="#006756"
       id="path5" />
  </g>
  <defs
     id="defs5">
    <clipPath
       id="clip0_1273_11445">
      <rect
         width="100.713"
         height="129"
         fill="white"
         id="rect5" />
    </clipPath>
  </defs>
</svg>
