<svg width="128" height="159" viewBox="0 0 128 159" fill="none" xmlns="http://www.w3.org/2000/svg">
<path d="M128 46.0257C128 45.0117 127.665 44.0258 127.049 43.2194C126.432 42.413 125.567 41.8306 124.587 41.5615L83.564 1.70802C83.1338 1.17366 82.5884 0.74268 81.9683 0.447014C81.3483 0.151349 80.6695 -0.00142549 79.9822 1.00941e-05H8.34473C7.24841 -0.00169386 6.16253 0.212348 5.14933 0.629867C4.13613 1.04739 3.21553 1.66017 2.44031 2.4331C1.66509 3.20603 1.05049 4.12391 0.631734 5.13411C0.212977 6.14432 -0.00169888 7.22699 1.0124e-05 8.32008V150.654C-0.00169888 151.747 0.212977 152.83 0.631734 153.84C1.05049 154.85 1.66509 155.768 2.44031 156.541C3.21553 157.314 4.13613 157.927 5.14933 158.344C6.16253 158.762 7.24841 158.976 8.34473 158.974H119.668C121.876 158.967 123.99 158.087 125.548 156.527C127.105 154.967 127.978 152.855 127.974 150.654C127.974 115.761 127.974 80.8759 127.974 45.9998L128 46.0257ZM84.6152 16.2649L112.492 42.2991H84.6152V16.2649ZM9.31807 149.709V9.25172H75.2712V46.9185C75.2712 48.1573 75.7648 49.3455 76.6434 50.2215C77.522 51.0975 78.7137 51.5896 79.9562 51.5896H118.682C118.682 84.3006 118.682 117.007 118.682 149.709H9.31807ZM26.9679 76.4463C27.2782 76.0942 27.6592 75.811 28.0861 75.6148C28.5131 75.4187 28.9766 75.3141 29.4466 75.3076H84.148C84.6177 75.3092 85.0816 75.4104 85.509 75.6044C85.9363 75.7985 86.3174 76.0811 86.6268 76.4334C87.2675 77.1643 87.6207 78.1022 87.6207 79.073C87.6207 80.0438 87.2675 80.9817 86.6268 81.7127C86.32 82.0657 85.9416 82.3497 85.5165 82.546C85.0915 82.7423 84.6294 82.8464 84.161 82.8513H29.4466C28.9751 82.85 28.5092 82.7489 28.0797 82.5549C27.6502 82.3608 27.2668 82.0782 26.9549 81.7256C26.3141 80.9946 25.961 80.0568 25.961 79.086C25.961 78.1152 26.3141 77.1773 26.9549 76.4463H26.9679ZM26.9679 121.346C27.2782 120.994 27.6592 120.711 28.0861 120.515C28.5131 120.319 28.9766 120.214 29.4466 120.208H99.3969C99.867 120.214 100.33 120.319 100.757 120.515C101.184 120.711 101.565 120.994 101.876 121.346C102.515 122.08 102.867 123.02 102.867 123.992C102.867 124.965 102.515 125.904 101.876 126.638C101.562 126.989 101.179 127.27 100.749 127.464C100.32 127.658 99.8551 127.76 99.384 127.764H29.4856C29.0144 127.76 28.5493 127.658 28.1201 127.464C27.691 127.27 27.3073 126.989 26.9938 126.638C26.3547 125.904 26.0028 124.965 26.0028 123.992C26.0028 123.02 26.3547 122.08 26.9938 121.346H26.9679ZM99.3969 97.7576C99.867 97.764 100.33 97.8687 100.757 98.0648C101.184 98.2609 101.565 98.5442 101.876 98.8963C102.516 99.6272 102.87 100.565 102.87 101.536C102.87 102.507 102.516 103.445 101.876 104.176C101.564 104.528 101.18 104.811 100.751 105.005C100.321 105.199 99.8555 105.3 99.384 105.301H29.4856C29.014 105.3 28.5481 105.199 28.1186 105.005C27.6891 104.811 27.3057 104.528 26.9938 104.176C26.3531 103.445 26 102.507 26 101.536C26 100.565 26.3531 99.6272 26.9938 98.8963C27.3042 98.5442 27.6851 98.2609 28.1121 98.0648C28.539 97.8687 29.0025 97.764 29.4726 97.7576H99.3969ZM26.9679 53.9834C27.2782 53.6313 27.6592 53.3481 28.0861 53.152C28.5131 52.9558 28.9766 52.8512 29.4466 52.8447H61.8003C62.2717 52.8469 62.7373 52.9483 63.1667 53.1423C63.5961 53.3363 63.9796 53.6185 64.292 53.9705C64.9117 54.6921 65.2564 55.6084 65.2654 56.5584C65.2632 57.5142 64.9074 58.4357 64.2661 59.1463C63.9609 59.5012 63.5828 59.7866 63.1574 59.983C62.732 60.1795 62.2691 60.2825 61.8003 60.2849H29.4466C28.9763 60.2836 28.5116 60.1838 28.0823 59.9921C27.6531 59.8005 27.269 59.5211 26.9549 59.1721C26.3157 58.4379 25.9638 57.4983 25.9638 56.526C25.9638 55.5538 26.3157 54.6142 26.9549 53.8799L26.9679 53.9834ZM26.9679 31.5335C27.2782 31.1814 27.6592 30.8981 28.0861 30.702C28.5131 30.5059 28.9766 30.4012 29.4466 30.3948H47.2522C47.7218 30.3963 48.1857 30.4975 48.6131 30.6916C49.0405 30.8857 49.4215 31.1683 49.7309 31.5205C50.3717 32.2515 50.7248 33.1894 50.7248 34.1602C50.7248 35.131 50.3717 36.0688 49.7309 36.7998C49.4258 37.1548 49.0477 37.4401 48.6223 37.6366C48.1968 37.8331 47.734 37.936 47.2651 37.9385H29.4856C29.014 37.9371 28.5481 37.8361 28.1186 37.6421C27.6891 37.448 27.3057 37.1654 26.9938 36.8128C26.3531 36.0818 26 35.1439 26 34.1731C26 33.2023 26.3531 32.2644 26.9938 31.5335H26.9679Z" fill="#006879"/>
</svg>
